<svg width="40" height="40" viewBox="0 0 40 40" fill="none" xmlns="http://www.w3.org/2000/svg">
<path d="M7.10938 28.2031V35.2344H32.8906V28.2031H7.10938Z" fill="#FF9F00"/>
<path d="M20 28.2031H32.8906V35.2344H20V28.2031Z" fill="#FF7816"/>
<path d="M33.0078 17.9843L31.1093 21.6873H8.89069L6.99219 17.9843C9.78119 14.1171 14.6329 11.7969 20 11.7969C25.3671 11.7969 30.2188 14.1171 33.0078 17.9843Z" fill="#FF4B00"/>
<path d="M33.0078 17.9843L31.1093 21.6873H20V11.7969C25.3671 11.7969 30.2188 14.1171 33.0078 17.9843Z" fill="#CC1E0D"/>
<path d="M37.2737 15.6407L32.8907 30.547H7.1095L2.72656 15.6407L5.67975 14.5158C7.01581 17.0704 9.57043 18.5704 11.6563 18.8282H12.8752C15.5705 18.4065 17.5859 14.2814 18.4065 10.3438H21.5941C22.4144 14.2814 24.4301 18.4065 27.1251 18.8282H28.3439C30.4298 18.5704 32.9844 17.0704 34.3205 14.5158L37.2737 15.6407Z" fill="#FDBF00"/>
<path d="M37.2736 15.6407L32.8906 30.547H20V10.3438H21.5936C22.4142 14.2814 24.4296 18.4065 27.1249 18.8282H28.3438C30.4297 18.5704 32.9843 17.0704 34.3204 14.5158L37.2736 15.6407Z" fill="#FF9F00"/>
<path d="M3.59375 16.4844C1.65527 16.4844 0 14.9072 0 12.9688C0 11.0303 1.65527 9.45312 3.59375 9.45312C5.53223 9.45312 7.10938 11.0303 7.10938 12.9688C7.10938 14.9072 5.53223 16.4844 3.59375 16.4844Z" fill="#FF9F00"/>
<path d="M36.4062 16.4844C34.4678 16.4844 32.8906 14.9072 32.8906 12.9688C32.8906 11.0303 34.4678 9.45312 36.4062 9.45312C38.3447 9.45312 40 11.0303 40 12.9688C40 14.9072 38.3447 16.4844 36.4062 16.4844Z" fill="#FF7816"/>
<path d="M20 4.76562C18.0545 4.76562 16.4844 6.33575 16.4844 8.28125C16.4844 10.2264 18.0545 11.7969 20 11.7969C21.9455 11.7969 23.5156 10.2264 23.5156 8.28125C23.5156 6.33575 21.9455 4.76562 20 4.76562Z" fill="#FF9F00"/>
<path d="M20.0001 18.3359L15.9922 22.3438L20.0001 26.3517L24.0079 22.3438L20.0001 18.3359Z" fill="#FF4B00"/>
<path d="M27.0314 23.03L28.6885 24.6871L27.0314 26.3442L25.3743 24.6871L27.0314 23.03Z" fill="#CC1E0D"/>
<path d="M12.9689 23.03L14.626 24.6871L12.9689 26.3442L11.3118 24.6871L12.9689 23.03Z" fill="#FF4B00"/>
<path d="M20 11.7969V4.76562C21.9455 4.76562 23.5156 6.33575 23.5156 8.28125C23.5156 10.2264 21.9455 11.7969 20 11.7969Z" fill="#FF7816"/>
<path d="M24.0079 22.3438L20 26.3517V18.3359L24.0079 22.3438Z" fill="#CC1E0D"/>
</svg>
