<svg width="20" height="20" viewBox="0 0 20 20" fill="none" xmlns="http://www.w3.org/2000/svg">
<path d="M19.9259 9.76327C19.7684 9.53409 15.9834 4.1665 9.99995 4.1665C4.86569 4.1665 0.29062 9.50327 0.0981168 9.73077C-0.0327056 9.88577 -0.0327056 10.1133 0.0981168 10.2691C0.29062 10.4966 4.86569 15.8334 9.99995 15.8334C15.1342 15.8334 19.7092 10.4966 19.9017 10.2691C20.0226 10.1258 20.0334 9.91827 19.9259 9.76327ZM9.99995 15C5.88407 15 1.97065 11.075 0.97649 9.99995C1.96901 8.92412 5.87825 4.99988 9.99995 4.99988C14.8158 4.99988 18.2151 8.91912 19.0451 9.97745C18.0867 11.0183 14.1508 15 9.99995 15Z" fill="black"/>
<path d="M9.99994 6.6665C8.16159 6.6665 6.66656 8.16153 6.66656 9.99988C6.66656 11.8382 8.16159 13.3332 9.99994 13.3332C11.8383 13.3332 13.3333 11.8382 13.3333 9.99988C13.3333 8.16153 11.8383 6.6665 9.99994 6.6665ZM9.99994 12.5C8.6216 12.5 7.4999 11.3783 7.4999 9.99991C7.4999 8.62157 8.6216 7.49988 9.99994 7.49988C11.3783 7.49988 12.5 8.62157 12.5 9.99991C12.5 11.3783 11.3783 12.5 9.99994 12.5Z" fill="black"/>
</svg>
