<svg width="20" height="20" viewBox="0 0 20 20" fill="none" xmlns="http://www.w3.org/2000/svg">
<path d="M12.3567 7.64299C12.1942 7.48049 11.93 7.48049 11.7675 7.64299C11.605 7.80549 11.605 8.07049 11.7675 8.23217C12.2392 8.70385 12.5 9.33135 12.5 9.99967C12.5 11.378 11.3784 12.4997 10 12.4997C9.33172 12.4997 8.70422 12.2397 8.23254 11.7672C8.07004 11.6047 7.80586 11.6047 7.64336 11.7672C7.48086 11.9288 7.48086 12.1938 7.64336 12.3563C8.27168 12.9863 9.10918 13.333 10 13.333C11.8384 13.333 13.3334 11.838 13.3334 9.99971C13.3334 9.10881 12.9867 8.27131 12.3567 7.64299Z" fill="black"/>
<path d="M10.5809 6.72388C10.3917 6.69056 10.1984 6.66638 10.0001 6.66638C8.16175 6.66638 6.66675 8.16138 6.66675 9.9997C6.66675 10.198 6.69093 10.3914 6.72507 10.5805C6.76089 10.7822 6.93675 10.9247 7.13425 10.9247C7.15843 10.9247 7.18257 10.923 7.20757 10.918C7.43339 10.878 7.58507 10.6613 7.54507 10.4355C7.51925 10.2938 7.50007 10.1497 7.50007 9.9997C7.50007 8.62138 8.62175 7.4997 10.0001 7.4997C10.1501 7.4997 10.2942 7.51888 10.4359 7.54388C10.6576 7.58888 10.8784 7.4322 10.9184 7.20638C10.9584 6.98056 10.8067 6.76388 10.5809 6.72388Z" fill="black"/>
<path d="M19.9008 9.73047C19.8066 9.61879 17.5525 6.98797 14.4433 5.37715C14.2416 5.27133 13.9875 5.35133 13.8816 5.55633C13.7758 5.76051 13.8558 6.01215 14.0608 6.11801C16.4558 7.35801 18.3691 9.29301 19.0233 9.99968C18.03 11.0755 14.1208 14.9997 9.99999 14.9997C8.60167 14.9997 7.1925 14.6622 5.81 13.9955C5.605 13.8947 5.35418 13.9822 5.25418 14.1897C5.15336 14.3964 5.24086 14.6455 5.44836 14.7455C6.94418 15.468 8.47585 15.833 10 15.833C15.1342 15.833 19.7092 10.4963 19.9017 10.2688C20.0333 10.1138 20.0325 9.88629 19.9008 9.73047Z" fill="black"/>
<path d="M12.7342 4.64638C11.7859 4.3272 10.8659 4.16638 10 4.16638C4.86587 4.16638 0.290876 9.50305 0.0983768 9.73055C-0.0233027 9.87387 -0.0333027 10.0822 0.0750565 10.238C0.132556 10.3205 1.51005 12.2764 3.89755 13.8622C3.96837 13.9097 4.04755 13.9322 4.12755 13.9322C4.26173 13.9322 4.39423 13.8672 4.47423 13.7447C4.60173 13.5539 4.54923 13.2947 4.35755 13.168C2.60423 12.0022 1.40423 10.5947 0.955055 10.0222C1.91423 8.98055 5.84923 4.99974 10 4.99974C10.7759 4.99974 11.6067 5.14642 12.4684 5.43556C12.6867 5.51388 12.9234 5.39306 12.9959 5.17388C13.0692 4.95556 12.9525 4.71974 12.7342 4.64638Z" fill="black"/>
<path d="M17.3775 2.62212C17.215 2.45962 16.9509 2.45962 16.7884 2.62212L2.62175 16.7888C2.45925 16.9513 2.45925 17.2155 2.62175 17.378C2.70343 17.4588 2.81007 17.4996 2.91675 17.4996C3.02343 17.4996 3.13007 17.4588 3.21093 17.378L17.3775 3.2113C17.54 3.0488 17.54 2.78462 17.3775 2.62212Z" fill="black"/>
</svg>
